<svg xmlns="http://www.w3.org/2000/svg" xmlns:xlink="http://www.w3.org/1999/xlink" width="1980" zoomAndPan="magnify" viewBox="0 0 1485 809.999993" height="1080" preserveAspectRatio="xMidYMid meet" version="1.0"><defs><clipPath id="c18eaa1d1b"><path d="M 442.5 105 L 1042.5 105 L 1042.5 705 L 442.5 705 Z M 442.5 105 " clip-rule="nonzero"/></clipPath><clipPath id="8ef82cf840"><path d="M 0 461.378906 L 375 461.378906 L 375 810 L 0 810 Z M 0 461.378906 " clip-rule="nonzero"/></clipPath><clipPath id="b43a3c1c10"><path d="M 967.484375 292.484375 L 1484.984375 292.484375 L 1484.984375 809.984375 L 967.484375 809.984375 Z M 967.484375 292.484375 " clip-rule="nonzero"/></clipPath><clipPath id="ed4a346153"><path d="M 888.992188 0.214844 L 1485 0.214844 L 1485 585.964844 L 888.992188 585.964844 Z M 888.992188 0.214844 " clip-rule="nonzero"/></clipPath><clipPath id="d32283bd20"><path d="M 115 134 L 225 134 L 225 461.5625 L 115 461.5625 Z M 115 134 " clip-rule="nonzero"/></clipPath><clipPath id="2ab6218a3f"><path d="M 0 0 L 351.925781 0 L 351.925781 206 L 0 206 Z M 0 0 " clip-rule="nonzero"/></clipPath><clipPath id="1e6ab2e6e4"><path d="M 478.734375 200 L 888.984375 200 L 888.984375 810 L 478.734375 810 Z M 478.734375 200 " clip-rule="nonzero"/></clipPath></defs><g clip-path="url(#c18eaa1d1b)"><path fill="#f3efec" d="M 442.5 105 L 1042.5 105 L 1042.5 705 L 442.5 705 L 442.5 105 " fill-opacity="1" fill-rule="nonzero"/></g><g clip-path="url(#8ef82cf840)"><path fill="#ffb800" d="M 0 461.378906 L 374.996094 461.378906 L 374.996094 836.375 L 0 836.375 Z M 0 461.378906 " fill-opacity="1" fill-rule="nonzero"/></g><path fill="#ffde59" d="M 187.496094 535.839844 C 188.800781 535.839844 190.105469 535.871094 191.410156 535.933594 C 192.710938 536 194.011719 536.09375 195.3125 536.222656 C 196.609375 536.351562 197.90625 536.511719 199.195312 536.703125 C 200.488281 536.894531 201.773438 537.117188 203.054688 537.371094 C 204.332031 537.625 205.605469 537.910156 206.871094 538.226562 C 208.136719 538.546875 209.394531 538.894531 210.644531 539.273438 C 211.894531 539.652344 213.132812 540.058594 214.359375 540.5 C 215.589844 540.9375 216.808594 541.410156 218.011719 541.90625 C 219.21875 542.40625 220.410156 542.9375 221.589844 543.492188 C 222.769531 544.050781 223.9375 544.636719 225.085938 545.253906 C 226.238281 545.867188 227.375 546.511719 228.492188 547.183594 C 229.613281 547.855469 230.714844 548.550781 231.800781 549.277344 C 232.886719 550 233.953125 550.753906 235 551.53125 C 236.046875 552.308594 237.078125 553.109375 238.085938 553.9375 C 239.09375 554.765625 240.082031 555.617188 241.050781 556.496094 C 242.015625 557.371094 242.960938 558.269531 243.882812 559.195312 C 244.808594 560.117188 245.707031 561.0625 246.582031 562.027344 C 247.460938 562.996094 248.3125 563.984375 249.140625 564.992188 C 249.96875 566 250.769531 567.027344 251.546875 568.078125 C 252.324219 569.125 253.078125 570.191406 253.800781 571.277344 C 254.527344 572.363281 255.226562 573.464844 255.894531 574.585938 C 256.566406 575.703125 257.210938 576.839844 257.824219 577.988281 C 258.441406 579.140625 259.027344 580.304688 259.585938 581.484375 C 260.144531 582.664062 260.671875 583.859375 261.171875 585.0625 C 261.671875 586.269531 262.140625 587.488281 262.582031 588.714844 C 263.019531 589.945312 263.429688 591.183594 263.808594 592.433594 C 264.1875 593.679688 264.535156 594.9375 264.851562 596.203125 C 265.167969 597.472656 265.457031 598.742188 265.710938 600.023438 C 265.964844 601.304688 266.1875 602.589844 266.378906 603.878906 C 266.570312 605.171875 266.730469 606.464844 266.859375 607.765625 C 266.984375 609.0625 267.082031 610.363281 267.144531 611.667969 C 267.210938 612.972656 267.242188 614.277344 267.242188 615.582031 L 267.242188 836.375 L 107.753906 836.375 L 107.753906 615.582031 C 107.753906 614.277344 107.785156 612.972656 107.847656 611.667969 C 107.914062 610.363281 108.007812 609.0625 108.136719 607.765625 C 108.265625 606.464844 108.425781 605.171875 108.617188 603.878906 C 108.808594 602.589844 109.03125 601.304688 109.285156 600.023438 C 109.539062 598.746094 109.824219 597.472656 110.144531 596.207031 C 110.460938 594.941406 110.808594 593.683594 111.1875 592.433594 C 111.566406 591.183594 111.976562 589.945312 112.414062 588.71875 C 112.855469 587.488281 113.324219 586.269531 113.824219 585.066406 C 114.324219 583.859375 114.851562 582.667969 115.410156 581.488281 C 115.96875 580.308594 116.554688 579.140625 117.167969 577.992188 C 117.785156 576.839844 118.425781 575.707031 119.097656 574.585938 C 119.769531 573.464844 120.46875 572.363281 121.191406 571.277344 C 121.917969 570.195312 122.667969 569.128906 123.445312 568.078125 C 124.222656 567.03125 125.027344 566.003906 125.855469 564.992188 C 126.679688 563.984375 127.535156 562.996094 128.410156 562.03125 C 129.285156 561.0625 130.1875 560.117188 131.109375 559.195312 C 132.03125 558.273438 132.976562 557.371094 133.945312 556.496094 C 134.910156 555.621094 135.898438 554.769531 136.90625 553.941406 C 137.917969 553.113281 138.945312 552.308594 139.992188 551.53125 C 141.042969 550.753906 142.109375 550.003906 143.191406 549.277344 C 144.277344 548.554688 145.378906 547.855469 146.5 547.183594 C 147.617188 546.511719 148.753906 545.871094 149.90625 545.253906 C 151.054688 544.640625 152.222656 544.054688 153.402344 543.496094 C 154.582031 542.9375 155.773438 542.410156 156.980469 541.910156 C 158.183594 541.410156 159.402344 540.941406 160.632812 540.5 C 161.859375 540.0625 163.097656 539.652344 164.347656 539.273438 C 165.597656 538.894531 166.855469 538.546875 168.121094 538.230469 C 169.386719 537.910156 170.660156 537.625 171.9375 537.371094 C 173.21875 537.117188 174.503906 536.894531 175.792969 536.703125 C 177.085938 536.511719 178.378906 536.351562 179.679688 536.222656 C 180.976562 536.09375 182.277344 536 183.582031 535.933594 C 184.886719 535.871094 186.191406 535.839844 187.496094 535.839844 Z M 187.496094 535.839844 " fill-opacity="1" fill-rule="nonzero"/><g clip-path="url(#b43a3c1c10)"><path fill="#ffa800" d="M 967.484375 809.976562 L 1484.976562 292.484375 L 1484.976562 809.976562 " fill-opacity="1" fill-rule="nonzero"/></g><g clip-path="url(#ed4a346153)"><path fill="#ffd63e" d="M 888.992188 198.945312 L 1087.75 198.945312 L 1087.75 397.5625 L 1286.519531 397.5625 L 1286.519531 585.824219 L 1485.28125 585.824219 L 1485.28125 0.339844 L 888.992188 0.339844 Z M 888.992188 198.945312 " fill-opacity="1" fill-rule="nonzero"/></g><g clip-path="url(#d32283bd20)"><path fill="#ffd63e" d="M 115.121094 134.9375 L 224.203125 134.9375 L 224.203125 461.214844 L 115.121094 461.214844 Z M 115.121094 134.9375 " fill-opacity="1" fill-rule="nonzero"/></g><g clip-path="url(#2ab6218a3f)"><path fill="#ffb800" d="M 351.910156 22.601562 C 351.910156 25.585938 351.835938 28.570312 351.691406 31.550781 C 351.542969 34.535156 351.324219 37.511719 351.03125 40.480469 C 350.738281 43.453125 350.375 46.414062 349.9375 49.367188 C 349.5 52.320312 348.988281 55.261719 348.40625 58.191406 C 347.824219 61.121094 347.171875 64.03125 346.449219 66.929688 C 345.722656 69.824219 344.929688 72.699219 344.0625 75.558594 C 343.195312 78.414062 342.261719 81.25 341.257812 84.058594 C 340.25 86.871094 339.179688 89.65625 338.035156 92.414062 C 336.894531 95.171875 335.6875 97.902344 334.410156 100.601562 C 333.136719 103.300781 331.796875 105.964844 330.390625 108.597656 C 328.984375 111.230469 327.515625 113.828125 325.980469 116.390625 C 324.449219 118.949219 322.851562 121.472656 321.195312 123.953125 C 319.539062 126.4375 317.820312 128.878906 316.046875 131.273438 C 314.269531 133.671875 312.433594 136.027344 310.542969 138.335938 C 308.648438 140.640625 306.703125 142.902344 304.699219 145.113281 C 302.695312 147.328125 300.640625 149.488281 298.53125 151.601562 C 296.421875 153.710938 294.261719 155.769531 292.054688 157.773438 C 289.84375 159.777344 287.585938 161.730469 285.28125 163.621094 C 282.972656 165.515625 280.625 167.351562 278.226562 169.132812 C 275.832031 170.910156 273.394531 172.628906 270.914062 174.289062 C 268.433594 175.945312 265.917969 177.542969 263.359375 179.078125 C 260.800781 180.613281 258.207031 182.085938 255.574219 183.492188 C 252.945312 184.898438 250.28125 186.242188 247.585938 187.515625 C 244.890625 188.792969 242.164062 190.003906 239.40625 191.144531 C 236.652344 192.289062 233.871094 193.363281 231.0625 194.367188 C 228.253906 195.375 225.421875 196.3125 222.570312 197.175781 C 219.714844 198.042969 216.839844 198.839844 213.949219 199.566406 C 211.054688 200.292969 208.144531 200.945312 205.21875 201.527344 C 202.296875 202.109375 199.355469 202.621094 196.40625 203.058594 C 193.457031 203.496094 190.496094 203.863281 187.53125 204.15625 C 184.5625 204.445312 181.585938 204.667969 178.609375 204.8125 C 175.628906 204.960938 172.648438 205.03125 169.667969 205.03125 C 166.683594 205.03125 163.703125 204.960938 160.722656 204.8125 C 157.746094 204.667969 154.773438 204.445312 151.804688 204.15625 C 148.835938 203.863281 145.875 203.496094 142.925781 203.058594 C 139.976562 202.621094 137.039062 202.109375 134.113281 201.527344 C 131.1875 200.945312 128.277344 200.292969 125.386719 199.566406 C 122.492188 198.839844 119.617188 198.042969 116.765625 197.175781 C 113.910156 196.3125 111.078125 195.375 108.269531 194.367188 C 105.460938 193.363281 102.679688 192.289062 99.925781 191.144531 C 97.167969 190.003906 94.445312 188.792969 91.746094 187.515625 C 89.050781 186.242188 86.386719 184.898438 83.757812 183.492188 C 81.128906 182.085938 78.535156 180.613281 75.976562 179.078125 C 73.417969 177.542969 70.898438 175.945312 68.417969 174.289062 C 65.9375 172.628906 63.5 170.910156 61.105469 169.132812 C 58.710938 167.351562 56.359375 165.515625 54.054688 163.621094 C 51.746094 161.730469 49.488281 159.777344 47.28125 157.773438 C 45.070312 155.769531 42.910156 153.710938 40.800781 151.601562 C 38.691406 149.488281 36.636719 147.328125 34.632812 145.113281 C 32.628906 142.902344 30.683594 140.640625 28.792969 138.335938 C 26.898438 136.027344 25.066406 133.671875 23.289062 131.273438 C 21.511719 128.878906 19.792969 126.4375 18.136719 123.953125 C 16.480469 121.472656 14.886719 118.949219 13.351562 116.390625 C 11.820312 113.828125 10.347656 111.230469 8.941406 108.597656 C 7.535156 105.964844 6.195312 103.300781 4.921875 100.601562 C 3.644531 97.902344 2.4375 95.171875 1.296875 92.414062 C 0.15625 89.65625 -0.917969 86.871094 -1.921875 84.058594 C -2.929688 81.25 -3.863281 78.414062 -4.730469 75.558594 C -5.59375 72.699219 -6.390625 69.824219 -7.113281 66.929688 C -7.839844 64.03125 -8.492188 61.121094 -9.074219 58.191406 C -9.65625 55.261719 -10.164062 52.320312 -10.605469 49.367188 C -11.042969 46.414062 -11.40625 43.453125 -11.699219 40.480469 C -11.992188 37.511719 -12.210938 34.535156 -12.355469 31.550781 C -12.503906 28.570312 -12.574219 25.585938 -12.574219 22.601562 C -12.574219 19.613281 -12.503906 16.632812 -12.355469 13.648438 C -12.210938 10.667969 -11.992188 7.691406 -11.699219 4.71875 C -11.40625 1.746094 -11.042969 -1.214844 -10.605469 -4.167969 C -10.164062 -7.121094 -9.65625 -10.0625 -9.074219 -12.992188 C -8.492188 -15.917969 -7.839844 -18.832031 -7.113281 -21.726562 C -6.390625 -24.625 -5.59375 -27.5 -4.730469 -30.355469 C -3.863281 -33.214844 -2.929688 -36.046875 -1.921875 -38.859375 C -0.917969 -41.671875 0.15625 -44.457031 1.296875 -47.214844 C 2.4375 -49.972656 3.644531 -52.699219 4.921875 -55.398438 C 6.195312 -58.097656 7.535156 -60.765625 8.941406 -63.398438 C 10.347656 -66.03125 11.820312 -68.628906 13.351562 -71.1875 C 14.886719 -73.75 16.480469 -76.269531 18.136719 -78.753906 C 19.792969 -81.234375 21.511719 -83.675781 23.289062 -86.074219 C 25.066406 -88.472656 26.898438 -90.824219 28.792969 -93.132812 C 30.683594 -95.441406 32.628906 -97.703125 34.632812 -99.914062 C 36.636719 -102.125 38.691406 -104.289062 40.800781 -106.398438 C 42.910156 -108.511719 45.070312 -110.566406 47.28125 -112.574219 C 49.488281 -114.578125 51.746094 -116.527344 54.054688 -118.421875 C 56.359375 -120.316406 58.710938 -122.152344 61.105469 -123.929688 C 63.5 -125.710938 65.9375 -127.429688 68.417969 -129.085938 C 70.898438 -130.746094 73.417969 -132.34375 75.976562 -133.878906 C 78.535156 -135.410156 81.128906 -136.882812 83.757812 -138.289062 C 86.386719 -139.699219 89.050781 -141.039062 91.746094 -142.316406 C 94.445312 -143.59375 97.167969 -144.800781 99.925781 -145.945312 C 102.679688 -147.085938 105.460938 -148.160156 108.269531 -149.167969 C 111.078125 -150.171875 113.910156 -151.109375 116.765625 -151.976562 C 119.617188 -152.84375 122.492188 -153.640625 125.386719 -154.363281 C 128.277344 -155.089844 131.1875 -155.746094 134.113281 -156.328125 C 137.039062 -156.910156 139.976562 -157.417969 142.925781 -157.859375 C 145.875 -158.296875 148.835938 -158.660156 151.804688 -158.953125 C 154.773438 -159.246094 157.746094 -159.464844 160.722656 -159.613281 C 163.703125 -159.757812 166.683594 -159.832031 169.667969 -159.832031 C 172.648438 -159.832031 175.628906 -159.757812 178.609375 -159.613281 C 181.585938 -159.464844 184.5625 -159.246094 187.53125 -158.953125 C 190.496094 -158.660156 193.457031 -158.296875 196.40625 -157.859375 C 199.355469 -157.417969 202.296875 -156.910156 205.21875 -156.328125 C 208.144531 -155.746094 211.054688 -155.089844 213.949219 -154.363281 C 216.839844 -153.640625 219.714844 -152.84375 222.570312 -151.976562 C 225.421875 -151.109375 228.253906 -150.171875 231.0625 -149.167969 C 233.871094 -148.160156 236.652344 -147.085938 239.40625 -145.945312 C 242.164062 -144.800781 244.890625 -143.59375 247.585938 -142.316406 C 250.28125 -141.039062 252.945312 -139.699219 255.574219 -138.289062 C 258.207031 -136.882812 260.800781 -135.410156 263.359375 -133.878906 C 265.917969 -132.34375 268.433594 -130.746094 270.914062 -129.085938 C 273.394531 -127.429688 275.832031 -125.710938 278.226562 -123.929688 C 280.625 -122.152344 282.972656 -120.316406 285.28125 -118.421875 C 287.585938 -116.527344 289.84375 -114.578125 292.054688 -112.574219 C 294.261719 -110.566406 296.421875 -108.511719 298.53125 -106.398438 C 300.640625 -104.289062 302.695312 -102.125 304.699219 -99.914062 C 306.703125 -97.703125 308.648438 -95.441406 310.542969 -93.132812 C 312.433594 -90.824219 314.269531 -88.472656 316.046875 -86.074219 C 317.820312 -83.675781 319.539062 -81.234375 321.195312 -78.753906 C 322.851562 -76.269531 324.449219 -73.75 325.980469 -71.1875 C 327.515625 -68.628906 328.984375 -66.03125 330.390625 -63.398438 C 331.796875 -60.765625 333.136719 -58.097656 334.410156 -55.398438 C 335.6875 -52.699219 336.894531 -49.972656 338.035156 -47.214844 C 339.179688 -44.453125 340.25 -41.671875 341.257812 -38.859375 C 342.261719 -36.046875 343.195312 -33.214844 344.0625 -30.355469 C 344.925781 -27.5 345.722656 -24.625 346.449219 -21.726562 C 347.171875 -18.832031 347.824219 -15.917969 348.40625 -12.992188 C 348.988281 -10.0625 349.5 -7.121094 349.9375 -4.167969 C 350.375 -1.214844 350.738281 1.746094 351.03125 4.71875 C 351.324219 7.691406 351.542969 10.667969 351.691406 13.648438 C 351.835938 16.632812 351.910156 19.613281 351.910156 22.601562 Z M 351.910156 22.601562 " fill-opacity="1" fill-rule="nonzero"/></g><g clip-path="url(#1e6ab2e6e4)"><path fill="#ffa800" d="M 478.816406 610.527344 C 478.789062 596.847656 479.453125 583.203125 480.800781 569.589844 C 482.148438 555.976562 484.175781 542.464844 486.882812 529.058594 C 489.59375 515.648438 492.96875 502.410156 497.007812 489.34375 C 501.046875 476.273438 505.734375 463.441406 511.066406 450.84375 C 516.203125 438.691406 521.910156 426.816406 528.195312 415.214844 C 534.480469 403.613281 541.3125 392.34375 548.6875 381.40625 C 556.0625 370.46875 563.949219 359.910156 572.347656 349.738281 C 580.746094 339.5625 589.617188 329.816406 598.957031 320.5 C 608.273438 311.160156 618.019531 302.292969 628.191406 293.894531 C 638.367188 285.5 648.925781 277.613281 659.863281 270.238281 C 670.800781 262.863281 682.070312 256.035156 693.671875 249.753906 C 705.269531 243.472656 717.144531 237.761719 729.300781 232.628906 C 741.894531 227.296875 754.730469 222.605469 767.796875 218.5625 C 780.867188 214.519531 794.105469 211.144531 807.515625 208.433594 C 820.921875 205.722656 834.433594 203.691406 848.046875 202.339844 C 861.660156 200.992188 875.304688 200.328125 888.984375 200.351562 L 888.984375 351.339844 C 880.496094 351.316406 872.023438 351.710938 863.570312 352.527344 C 855.117188 353.339844 846.726562 354.570312 838.394531 356.214844 C 830.0625 357.859375 821.832031 359.914062 813.707031 362.371094 C 805.578125 364.832031 797.589844 367.6875 789.746094 370.9375 C 781.902344 374.1875 774.234375 377.816406 766.746094 381.824219 C 759.261719 385.832031 751.992188 390.199219 744.9375 394.925781 C 737.882812 399.652344 731.078125 404.71875 724.527344 410.117188 C 717.972656 415.519531 711.703125 421.230469 705.714844 427.25 C 702.714844 430.25 699.792969 433.324219 696.945312 436.464844 C 694.09375 439.609375 691.328125 442.820312 688.636719 446.097656 C 685.945312 449.378906 683.335938 452.722656 680.8125 456.128906 C 678.285156 459.535156 675.84375 463.003906 673.488281 466.53125 C 671.132812 470.058594 668.863281 473.640625 666.683594 477.277344 C 664.503906 480.917969 662.414062 484.605469 660.414062 488.347656 C 658.414062 492.089844 656.507812 495.878906 654.695312 499.710938 C 652.882812 503.546875 651.164062 507.421875 649.542969 511.339844 C 647.917969 515.261719 646.394531 519.21875 644.964844 523.210938 C 643.535156 527.203125 642.207031 531.230469 640.972656 535.289062 C 639.742188 539.347656 638.613281 543.4375 637.582031 547.550781 C 636.550781 551.664062 635.621094 555.800781 634.796875 559.964844 C 633.96875 564.125 633.242188 568.300781 632.621094 572.496094 C 632 576.691406 631.480469 580.902344 631.0625 585.121094 C 630.648438 589.34375 630.335938 593.574219 630.128906 597.808594 C 629.921875 602.046875 629.816406 606.285156 629.816406 610.527344 C 629.816406 614.769531 629.921875 619.007812 630.128906 623.242188 C 630.335938 627.480469 630.648438 631.710938 631.0625 635.929688 C 631.480469 640.152344 632 644.359375 632.621094 648.554688 C 633.242188 652.75 633.96875 656.929688 634.796875 661.089844 C 635.621094 665.25 636.550781 669.386719 637.582031 673.503906 C 638.613281 677.617188 639.742188 681.703125 640.972656 685.761719 C 642.207031 689.820312 643.535156 693.847656 644.964844 697.84375 C 646.394531 701.835938 647.917969 705.792969 649.542969 709.710938 C 651.164062 713.628906 652.882812 717.507812 654.695312 721.339844 C 656.507812 725.175781 658.414062 728.964844 660.414062 732.703125 C 662.414062 736.445312 664.503906 740.136719 666.683594 743.773438 C 668.863281 747.410156 671.132812 750.996094 673.488281 754.523438 C 675.84375 758.050781 678.285156 761.515625 680.8125 764.921875 C 683.335938 768.332031 685.945312 771.675781 688.636719 774.953125 C 691.328125 778.230469 694.09375 781.445312 696.945312 784.585938 C 699.792969 787.730469 702.714844 790.800781 705.714844 793.800781 C 711.703125 799.824219 717.972656 805.535156 724.527344 810.933594 C 731.078125 816.335938 737.882812 821.398438 744.9375 826.125 C 751.992188 830.855469 759.261719 835.222656 766.75 839.230469 C 774.234375 843.238281 781.902344 846.867188 789.746094 850.117188 C 797.589844 853.367188 805.578125 856.21875 813.707031 858.679688 C 821.832031 861.140625 830.0625 863.191406 838.394531 864.835938 C 846.726562 866.480469 855.117188 867.710938 863.570312 868.527344 C 872.023438 869.34375 880.496094 869.738281 888.984375 869.714844 L 888.984375 1020.703125 C 875.308594 1020.726562 861.660156 1020.0625 848.050781 1018.714844 C 834.4375 1017.363281 820.925781 1015.335938 807.519531 1012.625 C 794.109375 1009.917969 780.871094 1006.542969 767.804688 1002.5 C 754.734375 998.457031 741.902344 993.769531 729.304688 988.4375 C 717.152344 983.300781 705.277344 977.59375 693.679688 971.308594 C 682.078125 965.027344 670.808594 958.199219 659.871094 950.824219 C 648.933594 943.449219 638.375 935.5625 628.199219 927.164062 C 618.027344 918.769531 608.28125 909.898438 598.964844 900.558594 C 589.621094 891.242188 580.75 881.496094 572.351562 871.320312 C 563.953125 861.148438 556.066406 850.589844 548.6875 839.648438 C 541.3125 828.710938 534.480469 817.441406 528.195312 805.839844 C 521.910156 794.238281 516.203125 782.363281 511.066406 770.207031 C 505.734375 757.613281 501.046875 744.777344 497.007812 731.710938 C 492.96875 718.640625 489.59375 705.402344 486.882812 691.996094 C 484.175781 678.585938 482.148438 665.074219 480.800781 651.464844 C 479.453125 637.851562 478.789062 624.207031 478.816406 610.527344 Z M 478.816406 610.527344 " fill-opacity="1" fill-rule="nonzero"/></g></svg>