<svg xmlns="http://www.w3.org/2000/svg" xmlns:xlink="http://www.w3.org/1999/xlink" width="800" zoomAndPan="magnify" viewBox="0 0 600 809.999993" height="1080" preserveAspectRatio="xMidYMid meet" version="1.0"><defs><clipPath id="ae789995aa"><path d="M 190.476562 328.789062 L 416.976562 328.789062 L 416.976562 751 L 190.476562 751 Z M 190.476562 328.789062 " clip-rule="nonzero"/></clipPath><clipPath id="a48780339a"><path d="M 218 428 L 390 428 L 390 775.039062 L 218 775.039062 Z M 218 428 " clip-rule="nonzero"/></clipPath></defs><g clip-path="url(#ae789995aa)"><path fill="#008037" d="M 416.769531 518.363281 L 356.976562 582.328125 L 356.886719 582.238281 L 250.566406 582.238281 L 250.476562 582.328125 L 190.683594 518.363281 L 250.476562 454.394531 L 250.566406 454.484375 L 356.886719 454.484375 L 356.976562 454.394531 Z M 303.277344 398.578125 L 320.667969 428.679688 L 324.34375 428.679688 L 309.734375 403.417969 L 339.226562 428.679688 L 344.066406 428.679688 L 305.25 395.355469 L 305.25 328.789062 L 302.113281 328.789062 L 302.113281 395.445312 L 263.296875 428.769531 L 268.136719 428.769531 Z M 331.515625 674.964844 L 342.453125 674.964844 L 342.453125 651.222656 L 331.515625 651.222656 Z M 309.375 661.707031 L 320.3125 661.707031 L 320.3125 607.863281 L 309.375 607.863281 Z M 264.910156 750.3125 L 275.847656 750.3125 L 275.847656 709.90625 L 264.910156 709.90625 Z M 264.910156 750.3125 " fill-opacity="1" fill-rule="nonzero"/></g><path fill="#ffaf22" d="M 403.679688 518.363281 L 356.976562 568.351562 L 310.269531 518.363281 L 356.976562 468.371094 Z M 250.476562 468.371094 L 203.773438 518.363281 L 250.476562 568.351562 L 297.183594 518.363281 Z M 264.910156 709.90625 L 275.847656 709.90625 L 275.847656 636.441406 L 264.910156 636.441406 Z M 287.140625 675.054688 L 298.078125 675.054688 L 298.078125 644.058594 L 287.140625 644.058594 Z M 331.425781 740.992188 L 342.363281 740.992188 L 342.363281 673.261719 L 331.425781 673.261719 Z M 303.726562 480.285156 C 316.1875 480.285156 323.089844 468.726562 325.421875 463.980469 L 282.121094 463.980469 C 284.363281 468.640625 291.175781 480.285156 303.726562 480.285156 Z M 303.726562 556.347656 C 291.265625 556.347656 284.363281 567.90625 282.03125 572.652344 L 325.332031 572.652344 C 323.089844 567.996094 316.1875 556.347656 303.726562 556.347656 Z M 303.726562 556.347656 " fill-opacity="1" fill-rule="nonzero"/><g clip-path="url(#a48780339a)"><path fill="#db4437" d="M 356.976562 454.574219 L 250.476562 454.574219 L 250.476562 428.769531 L 356.976562 428.769531 Z M 250.476562 607.863281 L 356.976562 607.863281 L 356.976562 582.058594 L 250.476562 582.058594 Z M 287.140625 645.9375 L 298.078125 645.9375 L 298.078125 607.953125 L 287.140625 607.953125 Z M 309.375 775.039062 L 320.3125 775.039062 L 320.3125 693.511719 L 309.375 693.511719 Z M 356.976562 486.019531 C 356.976562 503.847656 342.542969 518.363281 324.613281 518.363281 C 342.453125 518.363281 356.976562 532.785156 356.976562 550.703125 C 356.976562 532.875 371.40625 518.363281 389.335938 518.363281 C 371.40625 518.363281 356.976562 503.847656 356.976562 486.019531 Z M 282.75 518.363281 C 264.910156 518.363281 250.386719 503.9375 250.386719 486.019531 C 250.386719 503.847656 235.957031 518.363281 218.027344 518.363281 C 235.867188 518.363281 250.386719 532.785156 250.386719 550.703125 C 250.476562 532.785156 264.910156 518.363281 282.75 518.363281 Z M 313.855469 483.0625 L 296.375 483.0625 L 296.375 500.53125 L 313.855469 500.53125 Z M 294.941406 554.019531 L 312.421875 554.019531 L 312.421875 538.96875 L 294.941406 538.96875 Z M 294.941406 554.019531 " fill-opacity="1" fill-rule="nonzero"/></g><path fill="#ffaf22" d="M 323.808594 463.980469 C 321.65625 468.640625 315.289062 480.285156 303.636719 480.285156 C 291.984375 480.285156 285.617188 468.726562 283.46875 463.980469 L 259.441406 463.980469 L 303.726562 511.375 L 348.011719 463.980469 Z M 303.726562 495.335938 C 302.203125 495.335938 300.949219 494.082031 300.949219 492.558594 C 300.949219 491.035156 303.726562 486.199219 303.726562 486.199219 C 303.726562 486.199219 306.503906 491.035156 306.503906 492.558594 C 306.503906 494.082031 305.25 495.335938 303.726562 495.335938 Z M 283.558594 572.652344 C 285.707031 567.996094 292.074219 556.347656 303.726562 556.347656 C 315.378906 556.347656 321.746094 567.90625 323.898438 572.652344 L 348.011719 572.652344 L 303.726562 525.261719 L 259.441406 572.652344 Z M 303.726562 541.296875 C 305.25 541.296875 306.503906 542.550781 306.503906 544.074219 C 306.503906 545.597656 303.726562 550.433594 303.726562 550.433594 C 303.726562 550.433594 300.949219 545.597656 300.949219 544.074219 C 300.949219 542.550781 302.203125 541.296875 303.726562 541.296875 Z M 303.726562 582.148438 L 356.976562 607.953125 L 342.542969 607.953125 L 342.542969 651.222656 L 331.605469 651.222656 L 331.605469 607.953125 L 275.847656 607.953125 L 275.847656 638.503906 L 264.910156 638.503906 L 264.910156 607.953125 L 250.476562 607.953125 Z M 250.476562 428.769531 L 356.976562 428.769531 L 303.726562 454.574219 Z M 343.527344 504.921875 C 343.527344 504.921875 338.148438 503.488281 337.074219 502.414062 C 336 501.339844 336 499.546875 337.074219 498.472656 C 338.148438 497.398438 339.941406 497.398438 341.019531 498.472656 C 342.09375 499.546875 343.527344 504.921875 343.527344 504.921875 Z M 376.875 534.308594 C 377.953125 535.382812 377.953125 537.175781 376.875 538.25 C 375.800781 539.324219 374.007812 539.324219 372.933594 538.25 C 371.855469 537.175781 370.421875 531.800781 370.421875 531.800781 C 370.421875 531.800781 375.800781 533.234375 376.875 534.308594 Z M 376.875 502.414062 C 375.800781 503.488281 370.421875 504.921875 370.421875 504.921875 C 370.421875 504.921875 371.855469 499.546875 372.933594 498.472656 C 374.007812 497.398438 375.800781 497.398438 376.875 498.472656 C 377.953125 499.546875 377.953125 501.25 376.875 502.414062 Z M 337.074219 534.308594 C 338.148438 533.234375 343.527344 531.800781 343.527344 531.800781 C 343.527344 531.800781 342.09375 537.175781 341.019531 538.25 C 339.941406 539.324219 338.148438 539.324219 337.074219 538.25 C 336 537.085938 336 535.382812 337.074219 534.308594 Z M 234.519531 498.472656 C 235.597656 499.546875 237.03125 504.921875 237.03125 504.921875 C 237.03125 504.921875 231.652344 503.488281 230.578125 502.414062 C 229.5 501.339844 229.5 499.546875 230.578125 498.472656 C 231.652344 497.398438 233.445312 497.398438 234.519531 498.472656 Z M 270.378906 534.308594 C 271.453125 535.382812 271.453125 537.175781 270.378906 538.25 C 269.304688 539.324219 267.511719 539.324219 266.433594 538.25 C 265.359375 537.175781 263.925781 531.800781 263.925781 531.800781 C 263.925781 531.800781 269.214844 533.234375 270.378906 534.308594 Z M 270.378906 502.414062 C 269.304688 503.488281 263.925781 504.921875 263.925781 504.921875 C 263.925781 504.921875 265.359375 499.546875 266.433594 498.472656 C 267.511719 497.398438 269.304688 497.398438 270.378906 498.472656 C 271.453125 499.546875 271.453125 501.25 270.378906 502.414062 Z M 230.578125 534.308594 C 231.652344 533.234375 237.03125 531.800781 237.03125 531.800781 C 237.03125 531.800781 235.597656 537.175781 234.519531 538.25 C 233.445312 539.324219 231.652344 539.324219 230.578125 538.25 C 229.5 537.085938 229.5 535.382812 230.578125 534.308594 Z M 287.140625 673.171875 L 298.078125 673.171875 L 298.078125 763.480469 L 287.140625 763.480469 Z M 309.375 659.109375 L 320.3125 659.109375 L 320.3125 705.246094 L 309.375 705.246094 Z M 309.375 659.109375 " fill-opacity="1" fill-rule="nonzero"/><path stroke-linecap="butt" transform="matrix(0.00783222, 2.249824, -2.181805, 0.00759543, 302.628182, 4.007809)" fill="none" stroke-linejoin="miter" d="M 0.00000289785 -0.000332046 L 144.348105 0.000428584 " stroke="#008037" stroke-width="1" stroke-opacity="1" stroke-miterlimit="4"/></svg>